<?xml version="1.0" encoding="UTF-8" standalone="no"?>
<!DOCTYPE svg PUBLIC "-//W3C//DTD SVG 1.1//EN"
 "http://www.w3.org/Graphics/SVG/1.1/DTD/svg11.dtd">
<!-- Generated by graphviz version 3.0.0 (20220226.1711)
 -->
<!-- Pages: 1 -->
<svg width="2607pt" height="1018pt"
 viewBox="0.00 0.00 2607.00 1018.00" xmlns="http://www.w3.org/2000/svg" xmlns:xlink="http://www.w3.org/1999/xlink">
<g id="graph0" class="graph" transform="scale(1 1) rotate(0) translate(4 1014)">
<polygon fill="white" stroke="transparent" points="-4,4 -4,-1014 2603,-1014 2603,4 -4,4"/>
<g id="clust1" class="cluster">
<title>cluster7081</title>
<polygon fill="none" stroke="black" points="1054,-307 1054,-753 2210,-753 2210,-307 1054,-307"/>
<text text-anchor="middle" x="1632" y="-737.8" font-family="Monospace" font-size="14.00">search_word_attribute_pre.hql</text>
</g>
<g id="clust2" class="cluster">
<title>cluster7092</title>
<polygon fill="none" stroke="black" points="303,-307 303,-598 801,-598 801,-307 303,-307"/>
<text text-anchor="middle" x="552" y="-582.8" font-family="Monospace" font-size="14.00">inflow_channel_attribute_pre.hql</text>
</g>
<g id="clust3" class="cluster">
<title>cluster7098</title>
<polygon fill="none" stroke="black" points="1188,-8 1188,-299 1620,-299 1620,-8 1188,-8"/>
<text text-anchor="middle" x="1404" y="-283.8" font-family="Monospace" font-size="14.00">create_tmp.hql</text>
</g>
<g id="clust4" class="cluster">
<title>cluster7104</title>
<polygon fill="none" stroke="black" points="8,-606 8,-753 604,-753 604,-606 8,-606"/>
<text text-anchor="middle" x="306" y="-737.8" font-family="Monospace" font-size="14.00">inflow_channel_attribute.hql</text>
</g>
<g id="clust5" class="cluster">
<title>cluster7107</title>
<polygon fill="none" stroke="black" points="1411,-761 1411,-919 1975,-919 1975,-761 1411,-761"/>
<text text-anchor="middle" x="1693" y="-903.8" font-family="Monospace" font-size="14.00">search_word_attribute.hql</text>
</g>
<g id="clust6" class="cluster">
<title>cluster7110</title>
<polygon fill="none" stroke="black" points="612,-678 612,-836 1046,-836 1046,-678 612,-678"/>
<text text-anchor="middle" x="829" y="-820.8" font-family="Monospace" font-size="14.00">inflow_channel_ranking.hql</text>
</g>
<g id="clust7" class="cluster">
<title>cluster7113</title>
<polygon fill="none" stroke="black" points="1983,-844 1983,-1002 2385,-1002 2385,-844 1983,-844"/>
<text text-anchor="middle" x="2184" y="-986.8" font-family="Monospace" font-size="14.00">search_word_ranking.hql</text>
</g>
<g id="clust8" class="cluster">
<title>cluster7116</title>
<polygon fill="none" stroke="black" points="2393,-927 2393,-1002 2591,-1002 2591,-927 2393,-927"/>
<text text-anchor="middle" x="2492" y="-986.8" font-family="Monospace" font-size="14.00">inflow_item.hql</text>
</g>
<!-- node7082 -->
<g id="node1" class="node">
<title>node7082</title>
<ellipse fill="none" stroke="black" cx="1595" cy="-405" rx="193.07" ry="18"/>
<text text-anchor="middle" x="1595" y="-401.3" font-family="Monospace" font-size="14.00">${TMPID}_in_rakuten_parameter_word</text>
</g>
<!-- node7102 -->
<g id="node19" class="node">
<title>node7102</title>
<ellipse fill="none" stroke="black" cx="1404" cy="-250" rx="128.88" ry="18"/>
<text text-anchor="middle" x="1404" y="-246.3" font-family="Monospace" font-size="14.00">${TMPIF}_rat_attribute</text>
</g>
<!-- node7082&#45;&gt;node7102 -->
<g id="edge1" class="edge">
<title>node7082&#45;&gt;node7102</title>
<path fill="none" stroke="black" d="M1600.17,-386.96C1605.43,-365.9 1610.57,-330.03 1593,-307 1580,-289.96 1534.48,-276.19 1491.38,-266.57"/>
<polygon fill="black" stroke="black" points="1491.88,-263.1 1481.37,-264.4 1490.4,-269.94 1491.88,-263.1"/>
</g>
<!-- node7083 -->
<g id="node2" class="node">
<title>node7083</title>
<ellipse fill="none" stroke="black" cx="1595" cy="-632" rx="176.57" ry="18"/>
<text text-anchor="middle" x="1595" y="-628.3" font-family="Monospace" font-size="14.00">${TMPID}_repeater_customer_type</text>
</g>
<!-- node7086 -->
<g id="node5" class="node">
<title>node7086</title>
<ellipse fill="none" stroke="black" cx="1777" cy="-549" rx="150.27" ry="18"/>
<text text-anchor="middle" x="1777" y="-545.3" font-family="Monospace" font-size="14.00">${TMPID}_new_customer_type</text>
</g>
<!-- node7083&#45;&gt;node7086 -->
<g id="edge4" class="edge">
<title>node7083&#45;&gt;node7086</title>
<path fill="none" stroke="black" d="M1632.71,-614.22C1661.08,-601.59 1700.13,-584.21 1730.45,-570.72"/>
<polygon fill="black" stroke="black" points="1732.25,-573.75 1739.96,-566.48 1729.4,-567.35 1732.25,-573.75"/>
</g>
<!-- node7088 -->
<g id="node7" class="node">
<title>node7088</title>
<ellipse fill="none" stroke="black" cx="1595" cy="-477" rx="166.27" ry="18"/>
<text text-anchor="middle" x="1595" y="-473.3" font-family="Monospace" font-size="14.00">${TMPID}_search_word_combined</text>
</g>
<!-- node7083&#45;&gt;node7088 -->
<g id="edge5" class="edge">
<title>node7083&#45;&gt;node7088</title>
<path fill="none" stroke="black" d="M1595,-613.75C1595,-587.46 1595,-537.13 1595,-505.69"/>
<polygon fill="black" stroke="black" points="1598.5,-505.43 1595,-495.43 1591.5,-505.43 1598.5,-505.43"/>
</g>
<!-- node7084 -->
<g id="node3" class="node">
<title>node7084</title>
<ellipse fill="none" stroke="black" cx="2004" cy="-405" rx="198.47" ry="18"/>
<text text-anchor="middle" x="2004" y="-401.3" font-family="Monospace" font-size="14.00">${TMPID}_out_rakuten_parameter_word</text>
</g>
<!-- node7084&#45;&gt;node7102 -->
<g id="edge7" class="edge">
<title>node7084&#45;&gt;node7102</title>
<path fill="none" stroke="black" d="M1940.92,-387.92C1827.64,-359.03 1590.6,-298.58 1473.09,-268.62"/>
<polygon fill="black" stroke="black" points="1473.68,-265.16 1463.12,-266.08 1471.95,-271.94 1473.68,-265.16"/>
</g>
<!-- node7085 -->
<g id="node4" class="node">
<title>node7085</title>
<ellipse fill="none" stroke="black" cx="1693" cy="-704" rx="225.56" ry="18"/>
<text text-anchor="middle" x="1693" y="-700.3" font-family="Monospace" font-size="14.00">${TMPIF}_search_word_attribute_daily_pre</text>
</g>
<!-- node7085&#45;&gt;node7083 -->
<g id="edge9" class="edge">
<title>node7085&#45;&gt;node7083</title>
<path fill="none" stroke="black" d="M1669.28,-686.05C1656.61,-677.01 1640.84,-665.74 1627.1,-655.93"/>
<polygon fill="black" stroke="black" points="1629.02,-653 1618.84,-650.03 1624.95,-658.69 1629.02,-653"/>
</g>
<!-- node7085&#45;&gt;node7086 -->
<g id="edge8" class="edge">
<title>node7085&#45;&gt;node7086</title>
<path fill="none" stroke="black" d="M1739.58,-686.21C1755.64,-677.92 1771.87,-666.15 1781,-650 1793.56,-627.77 1790.38,-598.11 1785.4,-576.88"/>
<polygon fill="black" stroke="black" points="1788.78,-575.99 1782.86,-567.2 1782.01,-577.76 1788.78,-575.99"/>
</g>
<!-- node7086&#45;&gt;node7088 -->
<g id="edge12" class="edge">
<title>node7086&#45;&gt;node7088</title>
<path fill="none" stroke="black" d="M1734.33,-531.59C1708.3,-521.58 1674.83,-508.7 1647.22,-498.08"/>
<polygon fill="black" stroke="black" points="1648.31,-494.75 1637.72,-494.43 1645.8,-501.29 1648.31,-494.75"/>
</g>
<!-- node7090 -->
<g id="node9" class="node">
<title>node7090</title>
<ellipse fill="none" stroke="black" cx="1876" cy="-477" rx="96.68" ry="18"/>
<text text-anchor="middle" x="1876" y="-473.3" font-family="Monospace" font-size="14.00">${TMPID}_easy_id</text>
</g>
<!-- node7086&#45;&gt;node7090 -->
<g id="edge11" class="edge">
<title>node7086&#45;&gt;node7090</title>
<path fill="none" stroke="black" d="M1800.97,-531.05C1813.95,-521.87 1830.16,-510.41 1844.19,-500.49"/>
<polygon fill="black" stroke="black" points="1846.45,-503.18 1852.6,-494.55 1842.41,-497.46 1846.45,-503.18"/>
</g>
<!-- node7087 -->
<g id="node6" class="node">
<title>node7087</title>
<ellipse fill="none" stroke="black" cx="1196" cy="-333" rx="133.78" ry="18"/>
<text text-anchor="middle" x="1196" y="-329.3" font-family="Monospace" font-size="14.00">${TMPID}_search_session</text>
</g>
<!-- node7087&#45;&gt;node7102 -->
<g id="edge13" class="edge">
<title>node7087&#45;&gt;node7102</title>
<path fill="none" stroke="black" d="M1237.59,-315.8C1270.75,-302.89 1317.34,-284.75 1352.8,-270.94"/>
<polygon fill="black" stroke="black" points="1354.43,-274.06 1362.48,-267.17 1351.89,-267.54 1354.43,-274.06"/>
</g>
<!-- node7088&#45;&gt;node7082 -->
<g id="edge21" class="edge">
<title>node7088&#45;&gt;node7082</title>
<path fill="none" stroke="black" d="M1595,-458.7C1595,-450.98 1595,-441.71 1595,-433.11"/>
<polygon fill="black" stroke="black" points="1598.5,-433.1 1595,-423.1 1591.5,-433.1 1598.5,-433.1"/>
</g>
<!-- node7088&#45;&gt;node7084 -->
<g id="edge22" class="edge">
<title>node7088&#45;&gt;node7084</title>
<path fill="none" stroke="black" d="M1679.75,-461.5C1745.42,-450.26 1836.54,-434.66 1905.47,-422.86"/>
<polygon fill="black" stroke="black" points="1906.21,-426.29 1915.48,-421.15 1905.03,-419.39 1906.21,-426.29"/>
</g>
<!-- node7091 -->
<g id="node10" class="node">
<title>node7091</title>
<ellipse fill="none" stroke="black" cx="1223" cy="-405" rx="161.37" ry="18"/>
<text text-anchor="middle" x="1223" y="-401.3" font-family="Monospace" font-size="14.00">${TMPID}_search_word_session</text>
</g>
<!-- node7088&#45;&gt;node7091 -->
<g id="edge23" class="edge">
<title>node7088&#45;&gt;node7091</title>
<path fill="none" stroke="black" d="M1515.65,-461.07C1455.82,-449.81 1373.75,-434.37 1311.75,-422.7"/>
<polygon fill="black" stroke="black" points="1312.06,-419.2 1301.59,-420.79 1310.77,-426.08 1312.06,-419.2"/>
</g>
<!-- node7089 -->
<g id="node8" class="node">
<title>node7089</title>
<ellipse fill="none" stroke="black" cx="1466" cy="-333" rx="118.08" ry="18"/>
<text text-anchor="middle" x="1466" y="-329.3" font-family="Monospace" font-size="14.00">${TMPID}_search_word</text>
</g>
<!-- node7091&#45;&gt;node7087 -->
<g id="edge32" class="edge">
<title>node7091&#45;&gt;node7087</title>
<path fill="none" stroke="black" d="M1216.33,-386.7C1213.29,-378.81 1209.62,-369.3 1206.24,-360.55"/>
<polygon fill="black" stroke="black" points="1209.46,-359.17 1202.6,-351.1 1202.93,-361.69 1209.46,-359.17"/>
</g>
<!-- node7091&#45;&gt;node7089 -->
<g id="edge33" class="edge">
<title>node7091&#45;&gt;node7089</title>
<path fill="none" stroke="black" d="M1278.44,-388.03C1315.61,-377.32 1364.61,-363.21 1403.21,-352.09"/>
<polygon fill="black" stroke="black" points="1404.65,-355.31 1413.29,-349.18 1402.71,-348.59 1404.65,-355.31"/>
</g>
<!-- node7093 -->
<g id="node11" class="node">
<title>node7093</title>
<ellipse fill="none" stroke="black" cx="481" cy="-405" rx="155.17" ry="18"/>
<text text-anchor="middle" x="481" y="-401.3" font-family="Monospace" font-size="14.00">${TMPID}_inflow_new_orderer</text>
</g>
<!-- node7094 -->
<g id="node12" class="node">
<title>node7094</title>
<ellipse fill="none" stroke="black" cx="428" cy="-333" rx="96.68" ry="18"/>
<text text-anchor="middle" x="428" y="-329.3" font-family="Monospace" font-size="14.00">${TMPID}_easy_id</text>
</g>
<!-- node7093&#45;&gt;node7094 -->
<g id="edge2" class="edge">
<title>node7093&#45;&gt;node7094</title>
<path fill="none" stroke="black" d="M468.17,-387.05C461.88,-378.75 454.18,-368.58 447.21,-359.38"/>
<polygon fill="black" stroke="black" points="449.91,-357.14 441.08,-351.28 444.33,-361.36 449.91,-357.14"/>
</g>
<!-- node7097 -->
<g id="node15" class="node">
<title>node7097</title>
<ellipse fill="none" stroke="black" cx="666" cy="-333" rx="123.48" ry="18"/>
<text text-anchor="middle" x="666" y="-329.3" font-family="Monospace" font-size="14.00">${TMPID}_inflow_check</text>
</g>
<!-- node7093&#45;&gt;node7097 -->
<g id="edge3" class="edge">
<title>node7093&#45;&gt;node7097</title>
<path fill="none" stroke="black" d="M524.37,-387.59C551.22,-377.43 585.84,-364.33 614.13,-353.63"/>
<polygon fill="black" stroke="black" points="615.74,-356.76 623.85,-349.95 613.26,-350.21 615.74,-356.76"/>
</g>
<!-- node7095 -->
<g id="node13" class="node">
<title>node7095</title>
<ellipse fill="none" stroke="black" cx="610" cy="-477" rx="182.77" ry="18"/>
<text text-anchor="middle" x="610" y="-473.3" font-family="Monospace" font-size="14.00">${TMPID}_inflow_repeater_orderer</text>
</g>
<!-- node7095&#45;&gt;node7093 -->
<g id="edge17" class="edge">
<title>node7095&#45;&gt;node7093</title>
<path fill="none" stroke="black" d="M579.1,-459.23C561.68,-449.78 539.72,-437.86 520.99,-427.7"/>
<polygon fill="black" stroke="black" points="522.55,-424.57 512.09,-422.87 519.21,-430.72 522.55,-424.57"/>
</g>
<!-- node7095&#45;&gt;node7097 -->
<g id="edge16" class="edge">
<title>node7095&#45;&gt;node7097</title>
<path fill="none" stroke="black" d="M623.65,-458.75C630.93,-448.79 639.49,-435.75 645,-423 653.54,-403.23 658.92,-379.43 662.1,-361.42"/>
<polygon fill="black" stroke="black" points="665.59,-361.73 663.76,-351.3 658.69,-360.6 665.59,-361.73"/>
</g>
<!-- node7096 -->
<g id="node14" class="node">
<title>node7096</title>
<ellipse fill="none" stroke="black" cx="552" cy="-549" rx="241.26" ry="18"/>
<text text-anchor="middle" x="552" y="-545.3" font-family="Monospace" font-size="14.00">${TMPIF}_inflow_channel_attribute_daily_pre</text>
</g>
<!-- node7096&#45;&gt;node7093 -->
<g id="edge19" class="edge">
<title>node7096&#45;&gt;node7093</title>
<path fill="none" stroke="black" d="M468.16,-532.05C448.52,-524.2 429.89,-512.48 418,-495 409,-481.77 411.25,-473.51 418,-459 423.52,-447.14 433.15,-436.98 443.24,-428.83"/>
<polygon fill="black" stroke="black" points="445.47,-431.53 451.36,-422.73 441.26,-425.94 445.47,-431.53"/>
</g>
<!-- node7096&#45;&gt;node7095 -->
<g id="edge20" class="edge">
<title>node7096&#45;&gt;node7095</title>
<path fill="none" stroke="black" d="M566.34,-530.7C573.29,-522.3 581.77,-512.07 589.4,-502.86"/>
<polygon fill="black" stroke="black" points="592.14,-505.04 595.83,-495.1 586.75,-500.57 592.14,-505.04"/>
</g>
<!-- node7097&#45;&gt;node7102 -->
<g id="edge24" class="edge">
<title>node7097&#45;&gt;node7102</title>
<path fill="none" stroke="black" d="M761.35,-321.54C898.81,-306.45 1151.95,-278.66 1296.09,-262.84"/>
<polygon fill="black" stroke="black" points="1296.72,-266.3 1306.28,-261.73 1295.96,-259.34 1296.72,-266.3"/>
</g>
<!-- node7099 -->
<g id="node16" class="node">
<title>node7099</title>
<ellipse fill="none" stroke="black" cx="1314" cy="-106" rx="118.08" ry="18"/>
<text text-anchor="middle" x="1314" y="-102.3" font-family="Monospace" font-size="14.00">${TMPID}_rat_shop_id</text>
</g>
<!-- node7103 -->
<g id="node20" class="node">
<title>node7103</title>
<ellipse fill="none" stroke="black" cx="1314" cy="-34" rx="96.68" ry="18"/>
<text text-anchor="middle" x="1314" y="-30.3" font-family="Monospace" font-size="14.00">${TMPID}_rat_tmp</text>
</g>
<!-- node7099&#45;&gt;node7103 -->
<g id="edge6" class="edge">
<title>node7099&#45;&gt;node7103</title>
<path fill="none" stroke="black" d="M1314,-87.7C1314,-79.98 1314,-70.71 1314,-62.11"/>
<polygon fill="black" stroke="black" points="1317.5,-62.1 1314,-52.1 1310.5,-62.1 1317.5,-62.1"/>
</g>
<!-- node7100 -->
<g id="node17" class="node">
<title>node7100</title>
<ellipse fill="none" stroke="black" cx="1531" cy="-106" rx="80.69" ry="18"/>
<text text-anchor="middle" x="1531" y="-102.3" font-family="Monospace" font-size="14.00">${TMPID}_shop</text>
</g>
<!-- node7101 -->
<g id="node18" class="node">
<title>node7101</title>
<ellipse fill="none" stroke="black" cx="1404" cy="-178" rx="75.29" ry="18"/>
<text text-anchor="middle" x="1404" y="-174.3" font-family="Monospace" font-size="14.00">${TMPID}_rat</text>
</g>
<!-- node7101&#45;&gt;node7099 -->
<g id="edge28" class="edge">
<title>node7101&#45;&gt;node7099</title>
<path fill="none" stroke="black" d="M1382.67,-160.41C1370.99,-151.32 1356.33,-139.92 1343.56,-129.99"/>
<polygon fill="black" stroke="black" points="1345.53,-127.09 1335.49,-123.71 1341.23,-132.61 1345.53,-127.09"/>
</g>
<!-- node7101&#45;&gt;node7100 -->
<g id="edge29" class="edge">
<title>node7101&#45;&gt;node7100</title>
<path fill="none" stroke="black" d="M1432.5,-161.29C1450.43,-151.41 1473.78,-138.54 1493.24,-127.81"/>
<polygon fill="black" stroke="black" points="1495.09,-130.79 1502.15,-122.9 1491.71,-124.66 1495.09,-130.79"/>
</g>
<!-- node7102&#45;&gt;node7101 -->
<g id="edge30" class="edge">
<title>node7102&#45;&gt;node7101</title>
<path fill="none" stroke="black" d="M1404,-231.7C1404,-223.98 1404,-214.71 1404,-206.11"/>
<polygon fill="black" stroke="black" points="1407.5,-206.1 1404,-196.1 1400.5,-206.1 1407.5,-206.1"/>
</g>
<!-- node7105 -->
<g id="node21" class="node">
<title>node7105</title>
<ellipse fill="none" stroke="black" cx="306" cy="-632" rx="289.75" ry="18"/>
<text text-anchor="middle" x="306" y="-628.3" font-family="Monospace" font-size="14.00">${TMPIF}_inflow_channel_attribute_daily_grouping_set</text>
</g>
<!-- node7105&#45;&gt;node7096 -->
<g id="edge10" class="edge">
<title>node7105&#45;&gt;node7096</title>
<path fill="none" stroke="black" d="M356.97,-614.22C396.19,-601.3 450.49,-583.42 491.84,-569.81"/>
<polygon fill="black" stroke="black" points="493.11,-573.07 501.52,-566.62 490.92,-566.43 493.11,-573.07"/>
</g>
<!-- node7106 -->
<g id="node22" class="node">
<title>node7106</title>
<ellipse fill="none" stroke="black" cx="306" cy="-704" rx="209.06" ry="18"/>
<text text-anchor="middle" x="306" y="-700.3" font-family="Monospace" font-size="14.00">rkarte.inflow_channel_attribute_daily</text>
</g>
<!-- node7106&#45;&gt;node7105 -->
<g id="edge26" class="edge">
<title>node7106&#45;&gt;node7105</title>
<path fill="none" stroke="black" d="M306,-685.7C306,-677.98 306,-668.71 306,-660.11"/>
<polygon fill="black" stroke="black" points="309.5,-660.1 306,-650.1 302.5,-660.1 309.5,-660.1"/>
</g>
<!-- node7108 -->
<g id="node23" class="node">
<title>node7108</title>
<ellipse fill="none" stroke="black" cx="1693" cy="-870" rx="193.07" ry="18"/>
<text text-anchor="middle" x="1693" y="-866.3" font-family="Monospace" font-size="14.00">rkarte.search_word_attribute_daily</text>
</g>
<!-- node7109 -->
<g id="node24" class="node">
<title>node7109</title>
<ellipse fill="none" stroke="black" cx="1693" cy="-787" rx="273.75" ry="18"/>
<text text-anchor="middle" x="1693" y="-783.3" font-family="Monospace" font-size="14.00">${TMPIF}_search_word_attribute_daily_grouping_set</text>
</g>
<!-- node7108&#45;&gt;node7109 -->
<g id="edge14" class="edge">
<title>node7108&#45;&gt;node7109</title>
<path fill="none" stroke="black" d="M1693,-851.82C1693,-841.19 1693,-827.31 1693,-815.2"/>
<polygon fill="black" stroke="black" points="1696.5,-815.15 1693,-805.15 1689.5,-815.15 1696.5,-815.15"/>
</g>
<!-- node7109&#45;&gt;node7085 -->
<g id="edge25" class="edge">
<title>node7109&#45;&gt;node7085</title>
<path fill="none" stroke="black" d="M1693,-768.82C1693,-758.19 1693,-744.31 1693,-732.2"/>
<polygon fill="black" stroke="black" points="1696.5,-732.15 1693,-722.15 1689.5,-732.15 1696.5,-732.15"/>
</g>
<!-- node7111 -->
<g id="node25" class="node">
<title>node7111</title>
<ellipse fill="none" stroke="black" cx="829" cy="-787" rx="198.47" ry="18"/>
<text text-anchor="middle" x="829" y="-783.3" font-family="Monospace" font-size="14.00">rkarte.inflow_channel_ranking_daily</text>
</g>
<!-- node7112 -->
<g id="node26" class="node">
<title>node7112</title>
<ellipse fill="none" stroke="black" cx="829" cy="-704" rx="209.06" ry="18"/>
<text text-anchor="middle" x="829" y="-700.3" font-family="Monospace" font-size="14.00">${TMPID}_inflow_channel_ranking_daily</text>
</g>
<!-- node7111&#45;&gt;node7112 -->
<g id="edge15" class="edge">
<title>node7111&#45;&gt;node7112</title>
<path fill="none" stroke="black" d="M829,-768.82C829,-758.19 829,-744.31 829,-732.2"/>
<polygon fill="black" stroke="black" points="832.5,-732.15 829,-722.15 825.5,-732.15 832.5,-732.15"/>
</g>
<!-- node7112&#45;&gt;node7105 -->
<g id="edge31" class="edge">
<title>node7112&#45;&gt;node7105</title>
<path fill="none" stroke="black" d="M720.95,-688.54C637,-677.3 520.38,-661.69 432.15,-649.88"/>
<polygon fill="black" stroke="black" points="432.46,-646.39 422.08,-648.54 431.53,-653.33 432.46,-646.39"/>
</g>
<!-- node7114 -->
<g id="node27" class="node">
<title>node7114</title>
<ellipse fill="none" stroke="black" cx="2184" cy="-953" rx="182.77" ry="18"/>
<text text-anchor="middle" x="2184" y="-949.3" font-family="Monospace" font-size="14.00">rkarte.search_word_ranking_daily</text>
</g>
<!-- node7115 -->
<g id="node28" class="node">
<title>node7115</title>
<ellipse fill="none" stroke="black" cx="2184" cy="-870" rx="193.07" ry="18"/>
<text text-anchor="middle" x="2184" y="-866.3" font-family="Monospace" font-size="14.00">${TMPID}_search_word_ranking_daily</text>
</g>
<!-- node7114&#45;&gt;node7115 -->
<g id="edge18" class="edge">
<title>node7114&#45;&gt;node7115</title>
<path fill="none" stroke="black" d="M2184,-934.82C2184,-924.19 2184,-910.31 2184,-898.2"/>
<polygon fill="black" stroke="black" points="2187.5,-898.15 2184,-888.15 2180.5,-898.15 2187.5,-898.15"/>
</g>
<!-- node7115&#45;&gt;node7109 -->
<g id="edge27" class="edge">
<title>node7115&#45;&gt;node7109</title>
<path fill="none" stroke="black" d="M2093.37,-854.05C2010.26,-840.34 1887.12,-820.02 1799.38,-805.55"/>
<polygon fill="black" stroke="black" points="1799.83,-802.08 1789.4,-803.9 1798.69,-808.98 1799.83,-802.08"/>
</g>
<!-- node7117 -->
<g id="node29" class="node">
<title>node7117</title>
<ellipse fill="none" stroke="black" cx="2492" cy="-953" rx="90.98" ry="18"/>
<text text-anchor="middle" x="2492" y="-949.3" font-family="Monospace" font-size="14.00">whamtet_rat_tmp</text>
</g>
</g>
</svg>
